<?xml version="1.0" standalone="no"?>
<!DOCTYPE svg PUBLIC "-//W3C//DTD SVG 20010904//EN"
 "http://www.w3.org/TR/2001/REC-SVG-20010904/DTD/svg10.dtd">
<svg version="1.0" xmlns="http://www.w3.org/2000/svg"
 width="208.000000pt" height="208.000000pt" viewBox="0 0 208.000000 208.000000"
 preserveAspectRatio="xMidYMid meet">
<metadata>
Created by potrace 1.11, written by Peter Selinger 2001-2013
</metadata>
<g transform="translate(0.000000,208.000000) scale(0.100000,-0.100000)"
fill="#000000" stroke="none">
<path d="M0 1040 c0 -925 2 -1040 15 -1040 9 0 20 11 25 25 12 32 22 32 14 1
l-6 -25 312 -1 313 -1 -7 58 c-12 106 -19 413 -10 413 5 0 16 -15 24 -33 8
-17 21 -31 28 -29 6 1 12 -3 12 -9 0 -7 11 -8 29 -4 24 5 32 2 42 -17 17 -34
17 -33 44 -8 21 20 29 22 49 12 19 -8 27 -8 36 3 6 8 9 18 6 24 -3 5 2 7 13 4
10 -3 22 0 25 6 4 6 13 11 19 11 7 0 -1 -11 -18 -24 -16 -13 -27 -28 -23 -32
4 -4 3 -13 -2 -19 -6 -7 -8 -19 -4 -28 9 -23 37 -30 50 -13 17 24 44 20 44 -6
0 -13 3 -33 6 -45 5 -19 9 -20 25 -10 10 6 19 19 19 27 0 17 19 40 32 40 4 0
8 -7 8 -15 0 -8 6 -15 13 -15 8 0 22 -9 32 -20 10 -11 21 -20 25 -20 4 0 22
27 39 60 18 33 35 60 38 60 5 0 -4 -213 -13 -312 l-6 -58 416 0 416 0 0 440
c0 242 -3 440 -7 440 -4 0 -23 -15 -43 -32 -25 -23 -22 -19 8 13 28 29 42 54
40 65 -3 15 -18 6 -78 -51 -43 -40 -60 -53 -41 -30 19 22 54 59 78 82 l44 41
-3 108 -3 107 -65 -54 c-110 -91 -206 -191 -275 -288 -39 -54 -59 -70 -30 -23
74 116 243 298 333 357 41 27 42 29 42 82 l0 54 -47 -33 c-80 -56 -315 -298
-377 -388 -67 -97 -69 -84 -2 18 92 141 230 281 369 376 l57 39 0 379 0 378
-1040 0 -1040 0 0 -1040z m869 788 c18 -11 17 -13 -10 -42 -39 -43 -81 -67
-99 -56 -8 6 -11 10 -6 10 5 0 1 9 -9 20 -17 19 -17 21 1 41 33 37 88 49 123
27z m733 -361 c-61 -61 -135 -141 -164 -177 -71 -88 -98 -116 -98 -103 0 6 13
25 29 42 17 18 30 35 31 39 4 33 294 331 309 317 2 -3 -45 -56 -107 -118z
m-694 -89 c0 -29 -3 -47 -5 -41 -3 10 -9 9 -20 -3 -10 -10 -19 -12 -25 -6 -13
13 -1 32 19 32 10 0 14 6 10 19 -4 16 8 51 18 51 2 0 4 -24 3 -52z m-178 -48
c11 -7 6 -10 -22 -10 -20 0 -40 5 -43 10 -8 13 45 13 65 0z m0 -31 c0 -5 -18
-9 -41 -9 -22 0 -38 4 -35 9 3 5 22 9 41 9 19 0 35 -4 35 -9z m-563 -124 c-4
-8 -2 -17 4 -21 5 -3 7 -14 4 -25 -4 -10 -2 -19 3 -19 6 0 10 -10 10 -22 0
-23 10 -149 16 -203 5 -43 15 -167 21 -265 4 -46 8 -86 10 -89 8 -7 -15 -41
-28 -41 -7 0 -6 4 3 10 10 6 11 10 3 10 -7 0 -13 7 -13 15 0 8 6 15 13 15 9 0
9 2 -1 9 -15 9 -17 20 -37 256 -26 294 -29 385 -15 385 7 0 10 -7 7 -15z
m1094 -306 c-2 -181 -1 -178 -44 -158 -22 10 -25 17 -24 60 1 26 5 43 9 36 4
-7 8 3 8 23 0 23 3 30 9 22 6 -10 8 -5 9 15 0 15 4 45 8 66 11 64 26 26 25
-64z m-909 66 c3 -13 1 -22 -3 -19 -9 5 -13 44 -5 44 2 0 6 -11 8 -25z m-19
-43 c-18 -5 -27 3 -18 17 4 7 10 7 20 -2 11 -10 11 -13 -2 -15z m18 -19 c-11
-5 -11 -7 0 -14 12 -8 12 -10 0 -18 -9 -6 -10 -11 -2 -15 8 -5 8 -13 1 -26 -7
-13 -7 -21 0 -25 6 -4 8 -11 5 -16 -4 -5 15 -9 42 -10 45 -1 46 -1 18 -10 -16
-5 -37 -8 -46 -5 -14 3 -16 -5 -15 -43 l1 -46 55 -6 55 -6 -65 -1 c-36 -1 -60
-6 -55 -10 6 -4 10 -14 10 -22 0 -8 9 -18 20 -22 19 -6 19 -6 -2 -7 -12 -1
-25 -5 -28 -11 -9 -15 -25 -12 -25 5 0 8 -5 15 -11 15 -5 0 -7 5 -4 10 3 6 11
10 16 10 6 0 8 -4 4 -9 -3 -5 -1 -12 4 -16 10 -6 8 16 -4 48 -5 11 -2 17 6 17
10 0 10 3 1 12 -7 7 -12 17 -12 23 0 5 5 3 10 -5 6 -9 10 -10 10 -3 0 6 -4 15
-10 18 -5 3 -9 23 -9 43 l1 37 8 -30 8 -30 1 28 c0 16 -5 30 -13 33 -11 4 -13
17 -10 47 3 23 6 48 6 55 1 6 11 12 22 11 13 0 16 -3 7 -6z m358 -238 c10 -17
27 -45 37 -61 l18 -29 -31 29 c-33 29 -59 30 -68 1 -3 -8 -7 -22 -10 -31 -13
-42 -15 4 -5 112 14 157 22 178 32 85 4 -41 16 -88 27 -106z m-10 -70 c5 2 19
-7 31 -20 13 -14 31 -25 41 -25 9 0 21 -6 26 -12 13 -18 14 -58 2 -58 -15 0
-119 109 -118 123 0 9 2 9 6 -1 2 -6 8 -10 12 -7z m375 0 c3 -8 1 -15 -4 -15
-6 0 -10 7 -10 15 0 8 2 15 4 15 2 0 6 -7 10 -15z m27 -32 c-9 -15 -10 -12
-10 17 0 29 1 32 10 18 7 -12 7 -24 0 -35z m-1084 -80 c-2 -16 -4 -3 -4 27 0
30 2 43 4 28 2 -16 2 -40 0 -55z m843 43 c-26 -13 -44 -11 -35 5 4 5 18 9 33
9 l27 0 -25 -14z m95 -6 c3 -5 1 -10 -4 -10 -6 0 -11 5 -11 10 0 6 2 10 4 10
3 0 8 -4 11 -10z m-45 -86 c0 -8 -4 -12 -10 -9 -5 3 -10 13 -10 21 0 8 5 12
10 9 6 -3 10 -13 10 -21z m-881 -68 c2 -35 -11 -8 -15 31 -3 31 -2 34 5 13 5
-14 9 -34 10 -44z m0 -63 c-1 -33 -2 -35 -8 -13 -4 14 -6 31 -3 38 8 22 12 13
11 -25z m1577 28 c-8 -12 -46 -21 -46 -11 0 5 8 11 18 13 29 8 33 7 28 -2z
m124 -61 c-8 -5 -17 -7 -19 -4 -3 3 1 9 9 14 8 5 17 7 19 4 3 -3 -1 -9 -9 -14z
m-1686 -51 c9 -47 7 -87 -5 -94 -6 -5 -10 9 -9 37 1 23 -2 53 -5 66 -4 12 -3
22 3 22 5 0 12 -14 16 -31z"/>
<path d="M1222 136 c-6 -13 -14 -41 -17 -63 -4 -21 -9 -46 -12 -55 -3 -13 1
-18 16 -18 18 0 21 6 21 38 0 20 4 53 10 72 12 41 -2 61 -18 26z"/>
<path d="M801 44 c-24 -30 -27 -44 -8 -44 13 0 43 57 34 66 -2 3 -14 -7 -26
-22z"/>
<path d="M957 33 c-16 -15 -6 -33 18 -33 18 0 25 5 25 20 0 20 -28 28 -43 13z"/>
</g>
</svg>
